<svg width="23" height="20" viewBox="0 0 23 20" fill="none" xmlns="http://www.w3.org/2000/svg">
<g clip-path="url(#clip0_235_380)">
<path d="M17.824 7.1194H13.7715L11.3412 4.70392L7.75256 8.27072L11.4498 11.9454V18.1219" stroke="black" stroke-miterlimit="10" stroke-linejoin="bevel"/>
<path d="M13.7714 3.62125C14.5439 3.62125 15.1702 2.9988 15.1702 2.23097C15.1702 1.46315 14.5439 0.840698 13.7714 0.840698C12.9988 0.840698 12.3726 1.46315 12.3726 2.23097C12.3726 2.9988 12.9988 3.62125 13.7714 3.62125Z" stroke="black" stroke-miterlimit="10"/>
<path d="M18.3829 19.1593C20.3893 19.1593 22.0157 17.5428 22.0157 15.5487C22.0157 13.5545 20.3893 11.938 18.3829 11.938C16.3766 11.938 14.7501 13.5545 14.7501 15.5487C14.7501 17.5428 16.3766 19.1593 18.3829 19.1593Z" stroke="black" stroke-miterlimit="10"/>
<path d="M4.47423 19.1593C6.48058 19.1593 8.10704 17.5428 8.10704 15.5487C8.10704 13.5545 6.48058 11.938 4.47423 11.938C2.46789 11.938 0.841431 13.5545 0.841431 15.5487C0.841431 17.5428 2.46789 19.1593 4.47423 19.1593Z" stroke="black" stroke-miterlimit="10"/>
</g>
<defs>
<clipPath id="clip0_235_380">
<rect width="22.8571" height="20" fill="white"/>
</clipPath>
</defs>
</svg>
