<svg width="23" height="21" viewBox="0 0 23 21" fill="none" xmlns="http://www.w3.org/2000/svg">
<g clip-path="url(#clip0_239_706)">
<path d="M17.824 7.6194H13.7715L11.3412 5.20392L7.75256 8.77072L11.4498 12.4454V18.6219" stroke="#F0F0F0" stroke-miterlimit="10" stroke-linejoin="bevel"/>
<path d="M13.7714 4.12125C14.5439 4.12125 15.1702 3.4988 15.1702 2.73097C15.1702 1.96315 14.5439 1.3407 13.7714 1.3407C12.9988 1.3407 12.3726 1.96315 12.3726 2.73097C12.3726 3.4988 12.9988 4.12125 13.7714 4.12125Z" stroke="#F0F0F0" stroke-miterlimit="10"/>
<path d="M18.3829 19.6593C20.3893 19.6593 22.0157 18.0428 22.0157 16.0487C22.0157 14.0545 20.3893 12.438 18.3829 12.438C16.3766 12.438 14.7501 14.0545 14.7501 16.0487C14.7501 18.0428 16.3766 19.6593 18.3829 19.6593Z" stroke="#F0F0F0" stroke-miterlimit="10"/>
<path d="M4.47423 19.6593C6.48058 19.6593 8.10704 18.0428 8.10704 16.0487C8.10704 14.0545 6.48058 12.438 4.47423 12.438C2.46789 12.438 0.841431 14.0545 0.841431 16.0487C0.841431 18.0428 2.46789 19.6593 4.47423 19.6593Z" stroke="#F0F0F0" stroke-miterlimit="10"/>
</g>
<defs>
<clipPath id="clip0_239_706">
<rect width="22.8571" height="20" fill="white" transform="translate(0 0.5)"/>
</clipPath>
</defs>
</svg>
