<svg width="375" height="812" viewBox="0 0 375 812" fill="none" xmlns="http://www.w3.org/2000/svg">
<rect width="375" height="812" fill="white"/>
<rect x="30" y="545" width="36" height="237" fill="#FFC700"/>
<rect x="345" y="746" width="36" height="315" transform="rotate(90 345 746)" fill="#FFC700"/>
<rect x="30" y="30" width="36" height="237" fill="#FFC700"/>
<rect x="30" y="287" width="36" height="237" fill="#FFC700"/>
<rect x="309" y="30" width="36" height="237" fill="#FFC700"/>
<rect x="309" y="287" width="36" height="100" fill="#FFC700"/>
<rect x="309" y="545" width="36" height="100" fill="#FFC700"/>
<rect x="345" y="30" width="36" height="315" transform="rotate(90 345 30)" fill="#FFC700"/>
<rect x="345" y="287" width="36" height="315" transform="rotate(90 345 287)" fill="#FFC700"/>
<rect x="345" y="545" width="36" height="315" transform="rotate(90 345 545)" fill="#FFC700"/>
<rect x="345" y="94" width="36" height="315" transform="rotate(90 345 94)" fill="#FFC700"/>
<rect x="345" y="351" width="36" height="315" transform="rotate(90 345 351)" fill="#FFC700"/>
<rect x="253" y="387" width="36" height="138" fill="#FFC700"/>
<rect x="30" y="746" width="36" height="9.25714" fill="black"/>
<rect x="30" y="759.371" width="36" height="9.25714" fill="black"/>
<rect x="30" y="772.743" width="36" height="9.25714" fill="black"/>
</svg>
