<?xml version="1.0" encoding="utf-8"?>
<!-- Generator: Adobe Illustrator 27.9.0, SVG Export Plug-In . SVG Version: 6.00 Build 0)  -->
<svg version="1.1" id="Livello_1" xmlns="http://www.w3.org/2000/svg" xmlns:xlink="http://www.w3.org/1999/xlink" x="0px" y="0px"
	 viewBox="0 0 142.72 214.11" style="enable-background:new 0 0 142.72 214.11;" xml:space="preserve">
<g>
	<path d="M27.27,203.75c-8.75-4.35-12.39-10.4-10.48-18.26c0.62-2.57,2.04-5.1,3.62-7.25c12.95-17.67,25.95-35.3,39.12-52.81
		c2.39-3.17,3.07-6.22,2.44-10.04c-1.3-7.84-2.28-15.74-3.72-23.87c-2.75,8.77-11.4,10.42-17.5,15.11
		c-1.08,0.83-2.35,1.43-3.38,2.31c-2.72,2.32-3.39,5.72-1.78,8.33c1.68,2.72,5.33,3.66,8.6,1.95c2.53-1.32,4.89-2.97,7.34-4.45
		c2.01-1.21,4.15-1.66,5.59,0.61c1.49,2.34-0.1,4.03-1.97,5.26c-2.49,1.64-5.05,3.19-7.65,4.66c-6.21,3.5-14.03,1.63-17.81-4.2
		c-3.66-5.64-2.28-13.52,3.43-17.64c4.13-2.98,8.54-5.58,12.93-8.19c2.57-1.53,4.37-3.44,5.45-6.31c2.21-5.91,4.96-11.51,6.12-17.9
		c1.76-9.64,11.52-13.86,20.31-9.38c2.29,1.17,4.45,2.78,6.34,4.54c6.82,6.37,13.6,12.8,20.18,19.4c2.07,2.07,4.09,4.56,5.12,7.24
		c3.82,9.99,7.42,20.08,10.71,30.26c2.16,6.69-0.5,13.57-5.91,17.15c-5.62,3.72-13.33,3.62-18.42-0.94c-2.3-2.05-4.06-5.06-5.2-7.97
		c-2.5-6.36-4.64-12.89-6.57-19.45c-1.15-3.92-3.36-6.83-6.4-9.36c-1.91-1.59-3.7-3.33-5.45-5.1c-1.61-1.62-2-3.5-0.3-5.29
		c1.68-1.76,3.45-1.07,4.95,0.29c3.42,3.08,6.84,6.17,10.07,9.44c1.08,1.09,1.74,2.71,2.27,4.2c2.69,7.63,5.26,15.3,7.9,22.95
		c1.15,3.36,2.99,6.05,6.84,6.6c6.89,0.98,11.61-4.35,9.41-11.25c-3.06-9.6-6.57-19.06-10.15-28.48c-0.8-2.12-2.45-4.06-4.1-5.69
		c-6.64-6.56-13.43-12.96-20.18-19.4c-0.81-0.77-1.7-1.47-2.63-2.08c-6.14-4.05-12.33-1.23-12.32,6.06
		c0.01,6.3,0.95,12.63,1.74,18.91c1.05,8.39,2.21,16.77,3.6,25.11c0.5,3.01-0.34,5.2-2.08,7.54c-13.91,18.66-27.71,37.41-41.57,56.1
		c-1.95,2.63-3.12,5.36-2.11,8.67c1.79,5.82,8.58,7.9,13.25,3.98c1.32-1.11,2.48-2.46,3.53-3.84
		c11.83-15.55,23.62-31.14,35.43-46.71c0.68-0.89,1.34-1.8,2.09-2.63c1.39-1.55,3.07-2.35,4.9-0.86c1.77,1.43,1.6,3.29,0.39,5.01
		c-1.94,2.74-3.99,5.41-5.98,8.11c-2.88,3.9-2.82,7.99,0.53,11.45c9,9.3,18.06,18.54,27.22,27.69c1.45,1.44,3.36,2.69,5.29,3.32
		c3.83,1.26,7.43-0.3,9.38-3.53c2.08-3.44,1.69-7.46-1.39-10.61c-7.57-7.74-15.11-15.53-22.99-22.96c-3.24-3.06-4.1-6.66-4.49-10.65
		c-0.21-2.09,0.63-3.79,2.86-4.12c2.24-0.33,3.73,1.03,3.83,3.14c0.19,3.86,2.41,6.34,4.96,8.83c6.4,6.27,12.47,12.9,19.07,18.95
		c9.89,9.08,8.05,23.04-4.59,28.03c-2.99,0-5.98,0-8.96,0c-2.58-1.89-5.44-3.49-7.7-5.71c-10.6-10.42-21.04-21.01-31.78-31.79
		c-0.51,0.57-1.28,1.33-1.92,2.17c-5.42,7.11-10.7,14.34-16.27,21.33c-4.13,5.18-7.28,11.43-14.05,13.99
		C33.25,203.75,30.26,203.75,27.27,203.75z"/>
	<path d="M40.54,33.15c0.02-12.06,8.93-20.89,21.05-20.85c11.52,0.04,21.05,9.5,20.98,20.83c-0.07,11.29-9.81,21.13-20.95,21.16
		C49.93,54.32,40.52,44.89,40.54,33.15z M61.4,19.24c-8.11,0.03-13.91,5.79-13.91,13.84c0,7.75,6.27,14.24,13.77,14.28
		c7.53,0.03,14.26-6.51,14.35-13.92C75.7,25.68,69.23,19.22,61.4,19.24z"/>
</g>
</svg>
