<svg width="21" height="20" viewBox="0 0 21 20" fill="none" xmlns="http://www.w3.org/2000/svg">
<path d="M10.7969 1H12.8711L16 12.8165L11.7109 17H7" stroke="#FFF500" stroke-linejoin="bevel"/>
<path d="M4.5 17C4.5 17.8284 3.82843 18.5 3 18.5C2.17157 18.5 1.5 17.8284 1.5 17C1.5 16.1716 2.17157 15.5 3 15.5C3.82843 15.5 4.5 16.1716 4.5 17Z" stroke="#FFF500" stroke-miterlimit="10" stroke-linejoin="bevel"/>
<path d="M18.5 17C18.5 17.8284 17.8284 18.5 17 18.5C16.1716 18.5 15.5 17.8284 15.5 17C15.5 16.1716 16.1716 15.5 17 15.5C17.8284 15.5 18.5 16.1716 18.5 17Z" stroke="#FFF500" stroke-miterlimit="10" stroke-linejoin="bevel"/>
</svg>
